<?xml version="1.0" encoding="UTF-8" standalone="no"?>
<!-- Created with Inkscape (http://www.inkscape.org/) -->

<svg
   width="154.40805"
   height="32.000359"
   viewBox="0 0 154.40806 32.00036"
   version="1.1"
   id="svg1"
   xml:space="preserve"
   inkscape:version="1.3 (0e150ed6c4, 2023-07-21)"
   sodipodi:docname="header.svg"
   inkscape:export-filename="header.png"
   inkscape:export-xdpi="300"
   inkscape:export-ydpi="300"
   xmlns:inkscape="http://www.inkscape.org/namespaces/inkscape"
   xmlns:sodipodi="http://sodipodi.sourceforge.net/DTD/sodipodi-0.dtd"
   xmlns="http://www.w3.org/2000/svg"
   xmlns:svg="http://www.w3.org/2000/svg"><sodipodi:namedview
     id="namedview1"
     pagecolor="#ffffff"
     bordercolor="#000000"
     borderopacity="0.25"
     inkscape:showpageshadow="2"
     inkscape:pageopacity="0.0"
     inkscape:pagecheckerboard="0"
     inkscape:deskcolor="#d1d1d1"
     inkscape:document-units="px"
     inkscape:zoom="4.3339059"
     inkscape:cx="100.25598"
     inkscape:cy="44.301839"
     inkscape:window-width="1864"
     inkscape:window-height="1000"
     inkscape:window-x="0"
     inkscape:window-y="0"
     inkscape:window-maximized="1"
     inkscape:current-layer="g1" /><defs
     id="defs1"><inkscape:path-effect
       effect="fillet_chamfer"
       id="path-effect4"
       is_visible="true"
       lpeversion="1"
       nodesatellites_param="F,0,0,1,0,0.13229141,0,1 @ F,0,0,1,0,0,0,1 @ F,0,0,1,0,0,0,1 @ F,0,0,1,0,0,0,1 @ F,0,0,1,0,0,0,1 @ F,0,0,1,0,0,0,1 @ F,0,0,1,0,0,0,1 @ F,0,0,1,0,0,0,1 @ F,0,0,1,0,0,0,1 @ F,0,0,1,0,0,0,1 @ F,0,0,1,0,0,0,1 @ F,0,0,1,0,0,0,1 @ F,0,0,1,0,0,0,1 @ F,0,0,1,0,0,0,1 @ F,0,0,1,0,0,0,1 @ F,0,0,1,0,0,0,1 @ F,0,0,1,0,0,0,1 @ F,0,0,1,0,0.13229178,0,1 | F,0,0,1,0,0,0,1 @ F,0,0,1,0,0,0,1 @ F,0,0,1,0,0,0,1 @ F,0,0,1,0,0,0,1 @ F,0,0,1,0,0,0,1 @ F,0,0,1,0,0,0,1 @ F,0,0,1,0,0,0,1 @ F,0,0,1,0,0,0,1 @ F,0,0,1,0,0,0,1 @ F,0,0,1,0,0,0,1 @ F,0,0,1,0,0,0,1 @ F,0,0,1,0,0,0,1 @ F,0,0,1,0,0,0,1 @ F,0,0,1,0,0,0,1 @ F,0,0,1,0,0,0,1 @ F,0,0,1,0,0,0,1 @ F,0,0,1,0,0,0,1 @ F,0,0,1,0,0,0,1 @ F,0,0,1,0,0,0,1 @ F,0,0,1,0,0,0,1"
       radius="0"
       unit="px"
       method="auto"
       mode="F"
       chamfer_steps="1"
       flexible="false"
       use_knot_distance="true"
       apply_no_radius="true"
       apply_with_radius="true"
       only_selected="false"
       hide_knots="false" /><inkscape:path-effect
       effect="fillet_chamfer"
       id="path-effect3"
       is_visible="true"
       lpeversion="1"
       nodesatellites_param="F,0,0,1,0,0,0,1 @ F,0,0,1,0,0,0,1 @ F,0,0,1,0,0,0,1 @ F,0,0,1,0,0,0,1 @ F,0,0,1,0,0,0,1 @ F,0,0,1,0,0,0,1 @ F,0,0,1,0,0,0,1 @ F,0,0,1,0,0,0,1 @ F,0,0,1,0,0,0,1 @ F,0,0,1,0,0,0,1 @ F,0,0,1,0,0,0,1 @ F,0,0,1,0,0,0,1 @ F,0,0,1,0,0,0,1 @ F,0,0,1,0,0,0,1 @ F,0,0,1,0,0,0,1 @ F,0,0,1,0,0,0,1 @ F,0,0,1,0,0,0,1 @ F,0,0,1,0,0.26458262,0,1 | F,0,0,1,0,0,0,1 @ F,0,0,1,0,0,0,1 @ F,0,0,1,0,0,0,1 @ F,0,0,1,0,0,0,1 @ F,0,0,1,0,0,0,1 @ F,0,0,1,0,0,0,1 @ F,0,0,1,0,0,0,1 @ F,0,0,1,0,0,0,1 @ F,0,0,1,0,0,0,1 @ F,0,0,1,0,0,0,1 @ F,0,0,1,0,0,0,1 @ F,0,0,1,0,0,0,1 @ F,0,0,1,0,0,0,1 @ F,0,0,1,0,0,0,1 @ F,0,0,1,0,0,0,1 @ F,0,0,1,0,0,0,1 @ F,0,0,1,0,0,0,1 @ F,0,0,1,0,0,0,1 @ F,0,0,1,0,0,0,1 @ F,0,0,1,0,0,0,1"
       radius="0"
       unit="px"
       method="auto"
       mode="F"
       chamfer_steps="1"
       flexible="false"
       use_knot_distance="true"
       apply_no_radius="true"
       apply_with_radius="true"
       only_selected="false"
       hide_knots="false" /></defs><g
     inkscape:label="Layer 1"
     inkscape:groupmode="layer"
     id="layer1"
     transform="translate(-75.590553,-75.590553)"><g
       id="g1"><path
         id="rect1"
         style="fill:#01346b;fill-opacity:1;stroke-width:0.999999"
         d="m 98.250716,75.592865 -3.99219,0.26953 c -0.55274,0.0372 -0.96689,0.51171 -0.92968,1.06445 l 0.13476,1.9961 c 0.0123,0.18238 0.0733,0.34718 0.16797,0.48828 l -12.10742,0.81641 c -0.55275,0.0372 -0.96885,0.5117 -0.93164,1.06445 l 0.0684,0.99805 c 0.0372,0.55274 0.5117,0.96689 1.06445,0.92968 l 29.931644,-2.01367 c 0.55275,-0.0372 0.96885,-0.51366 0.93164,-1.0664 l -0.0684,-0.9961 c -0.0372,-0.55275 -0.5117,-0.96884 -1.06445,-0.93164 l -12.107424,0.81445 c 0.0749,-0.15251 0.11384,-0.32542 0.10156,-0.50781 l -0.13477,-1.99414 c -0.0372,-0.55275 -0.5117,-0.96884 -1.06445,-0.93164 z m -17.16016,7.99805 c -0.27614,0 -0.5,0.22385 -0.49999,0.5 v 2.5 h -4.000013 c -0.55236,-0.0425 -1,0.446 -1,1 v 1 c 0,0.55399 0.44601,1 1,1 h 4.000013 v 14.999995 c -0.12747,1.6571 1.338,3 2.99999,3 h 26.000014 c 1.66199,0 2.99999,-1.338 2.99999,-3 V 89.590915 h 4.00001 c 0.55236,0.0425 1,-0.44601 1,-1 v -1 c 0,-0.554 -0.446,-1 -1,-1 h -4.00001 v -2.5 c 0,-0.27614 -0.22386,-0.5 -0.49999,-0.5 z m 20.500014,3 c 1.65685,0 3,1.34314 3,3 0,1.65685 -1.34315,3 -3,3 -0.82989,-0.002 -1.621834,-0.34786 -2.187504,-0.95508 l -5.9043,3.22266 c 0.0606,0.23943 0.0915,0.48543 0.0918,0.73242 -1.7e-4,0.24764 -0.031,0.49431 -0.0918,0.73437 l 5.90625,3.21875 c 0.56555,-0.606 1.356644,-0.95099 2.185554,-0.95312 1.65685,0 3,1.34314 3,2.999995 0,1.65685 -1.34315,3 -3,3 -1.656864,0 -3.000004,-1.34315 -3.000004,-3 0.002,-0.24586 0.0341,-0.49052 0.0957,-0.72852 l -5.90625,-3.220695 c -0.56716,0.60555 -1.35978,0.94918 -2.18946,0.94922 -1.65685,0 -3,-1.34315 -3,-3 0,-1.65686 1.34315,-3 3,-3 0.83065,0 1.62413,0.3444 2.19141,0.95117 l 5.9043,-3.21875 c -0.062,-0.23927 -0.0941,-0.48527 -0.0957,-0.73242 0,-1.65686 1.34315,-3 3.000004,-3 z"
         sodipodi:nodetypes="cccccccccccccccccccccsssccsssccssscsccsscccccccssccccsscccs" /><path
         style="font-weight:200;font-size:24px;font-family:'Noto Sans';-inkscape-font-specification:'Noto Sans Ultra-Light';fill:#050000;stroke-width:2;stroke-linecap:round"
         d="m 138.07855,97.606915 q 0,1.536 -0.792,2.567995 -0.768,1.008 -2.088,1.536 -1.32,0.504 -2.952,0.504 -1.608,0 -2.712,-0.216 -1.08,-0.216 -1.944,-0.504 v -0.984 q 0.936,0.36 2.112,0.6 1.176,0.24 2.616,0.24 1.344,0 2.424,-0.384 1.08,-0.408 1.728,-1.223995 0.648,-0.84 0.648,-2.112 0,-1.128 -0.552,-1.824 -0.528,-0.696 -1.56,-1.176 -1.032,-0.504 -2.52,-1.008 -1.392,-0.456 -2.472,-1.008 -1.056,-0.552 -1.656,-1.416 -0.576,-0.864 -0.576,-2.28 0,-1.416 0.72,-2.376 0.744,-0.96 1.968,-1.44 1.224,-0.504 2.76,-0.504 2.376,0 4.416,0.912 l -0.36,0.816 q -1.056,-0.48 -2.088,-0.672 -1.008,-0.192 -2.016,-0.192 -1.224,0 -2.232,0.384 -1.008,0.36 -1.608,1.128 -0.6,0.744 -0.6,1.92 0,1.224 0.552,1.944 0.552,0.72 1.512,1.176 0.984,0.432 2.256,0.864 1.512,0.48 2.64,1.056 1.128,0.552 1.752,1.416 0.624,0.84 0.624,2.256 z m 4.32002,-7.728 q 0,0.528 -0.024,0.96 -0.024,0.408 -0.048,0.912 h 0.072 q 0.432,-1.104 1.536,-1.896 1.104,-0.816 2.976,-0.816 2.088,0 3.24,1.128 1.152,1.104 1.152,3.48 v 8.327995 h -0.936 v -8.279995 q 0,-1.992 -0.912,-2.904 -0.912,-0.936 -2.616,-0.936 -2.088,0 -3.264,1.248 -1.176,1.224 -1.176,3.744 v 7.127995 h -0.936 V 83.734915 h 0.936 z m 17.35202,-0.84 q 2.04,0 3.048,1.08 1.032,1.056 1.032,3.384 v 8.471995 h -0.744 l -0.168,-2.351995 h -0.048 q -0.576,1.103995 -1.632,1.847995 -1.032,0.744 -2.928,0.744 -1.872,0 -2.88,-0.912 -0.984,-0.912 -0.984,-2.519995 0,-1.896 1.56,-2.856 1.584,-0.984 4.488,-1.128 l 2.4,-0.144 v -0.96 q 0,-2.064 -0.792,-2.928 -0.792,-0.888 -2.376,-0.888 -1.848,0 -3.768,0.96 l -0.288,-0.816 q 0.912,-0.432 1.944,-0.696 1.032,-0.288 2.136,-0.288 z m 0.84,6.504 q -2.448,0.12 -3.816,0.888 -1.368,0.768 -1.368,2.352 0,1.247995 0.792,1.943995 0.792,0.672 2.208,0.672 2.256,0 3.36,-1.272 1.104,-1.295995 1.128,-3.407995 v -1.272 z m 12.16799,-6.48 q 0.528,0 0.984,0.072 0.456,0.048 0.864,0.168 l -0.168,0.864 q -0.432,-0.12 -0.84,-0.168 -0.384,-0.072 -0.888,-0.072 -1.896,0 -2.88,1.344 -0.96,1.344 -0.96,3.624 v 7.079995 h -0.912 V 89.254915 h 0.816 l 0.072,2.424 h 0.072 q 0.384,-1.104 1.344,-1.848 0.984,-0.768 2.496,-0.768 z m 8.66398,-0.048 q 1.632,0 2.664,0.792 1.056,0.768 1.56,2.112 0.528,1.32 0.528,3 v 0.744 h -9.312 q -0.024,2.76 1.224,4.248 1.272,1.463995 3.624,1.463995 1.176,0 2.016,-0.168 0.864,-0.192 1.944,-0.696 v 0.912 q -0.936,0.408 -1.872,0.6 -0.912,0.192 -2.112,0.192 -1.944,0 -3.24,-0.816 -1.272,-0.816 -1.92,-2.279995 -0.624,-1.464 -0.624,-3.384 0,-1.848 0.624,-3.36 0.624,-1.536 1.848,-2.448 1.224,-0.912 3.048,-0.912 z m 0,0.84 q -1.92,0 -3.12,1.296 -1.2,1.272 -1.416,3.696 h 8.328 q 0,-2.232 -0.936,-3.6 -0.936,-1.392 -2.856,-1.392 z m 13.416,12.359995 q -1.968,0 -3.264,-0.816 -1.296,-0.816 -1.944,-2.279995 -0.648,-1.488 -0.648,-3.432 0,-2.016 0.744,-3.504 0.768,-1.512 2.16,-2.328 1.392,-0.84 3.288,-0.84 0.888,0 1.632,0.168 0.768,0.144 1.416,0.432 l -0.216,0.84 q -0.696,-0.288 -1.44,-0.432 -0.72,-0.144 -1.392,-0.144 -1.632,0 -2.808,0.72 -1.176,0.72 -1.8,2.04 -0.624,1.296 -0.624,3.048 0,1.608 0.504,2.904 0.528,1.272 1.608,2.039995 1.08,0.744 2.76,0.744 0.912,0 1.752,-0.168 0.84,-0.192 1.536,-0.48 v 0.84 q -0.6,0.288 -1.44,0.456 -0.816,0.192 -1.824,0.192 z m 6.72002,-17.615995 q 0.456,0 0.6,0.24 0.168,0.24 0.168,0.624 0,0.384 -0.168,0.624 -0.144,0.24 -0.6,0.24 -0.384,0 -0.552,-0.24 -0.168,-0.24 -0.168,-0.624 0,-0.384 0.168,-0.624 0.168,-0.24 0.552,-0.24 z m 0.48,4.656 v 12.719995 h -0.936 V 89.254915 Z m 9.76803,-0.24 q 2.496,0 3.816,1.656 1.344,1.656 1.344,4.848 0,3.216 -1.416,4.967995 -1.416,1.728 -3.936,1.728 -1.8,0 -2.88,-0.816 -1.056,-0.816 -1.488,-1.967995 h -0.048 q 0.024,0.719995 0.024,1.487995 0.024,0.744 0.024,1.44 v 5.232 h -0.912 V 89.254915 h 0.768 l 0.096,2.784 h 0.048 q 0.288,-0.792 0.888,-1.464 0.6,-0.696 1.512,-1.128 0.912,-0.432 2.16,-0.432 z m -0.072,0.84 q -2.232,0 -3.36,1.488 -1.104,1.464 -1.128,4.176 v 0.144 q 0,2.904 1.128,4.32 1.128,1.391995 3.192,1.391995 2.112,0 3.264,-1.511995 1.176,-1.512 1.176,-4.344 0,-5.664 -4.272,-5.664 z m 13.512,-0.84 q 1.632,0 2.664,0.792 1.056,0.768 1.56,2.112 0.528,1.32 0.528,3 v 0.744 h -9.312 q -0.024,2.76 1.224,4.248 1.272,1.463995 3.624,1.463995 1.176,0 2.016,-0.168 0.864,-0.192 1.944,-0.696 v 0.912 q -0.936,0.408 -1.872,0.6 -0.912,0.192 -2.112,0.192 -1.944,0 -3.24,-0.816 -1.272,-0.816 -1.92,-2.279995 -0.624,-1.464 -0.624,-3.384 0,-1.848 0.624,-3.36 0.624,-1.536 1.848,-2.448 1.224,-0.912 3.048,-0.912 z m 0,0.84 q -1.92,0 -3.12,1.296 -1.2,1.272 -1.416,3.696 h 8.328 q 0,-2.232 -0.936,-3.6 -0.936,-1.392 -2.856,-1.392 z"
         id="text3"
         aria-label="Sharecipe" /></g></g></svg>
