<?xml version="1.0" encoding="UTF-8" standalone="no"?>
<!-- Created with Inkscape (http://www.inkscape.org/) -->

<svg
   width="48"
   height="48"
   viewBox="0 0 12.7 12.7"
   version="1.1"
   id="svg1"
   inkscape:version="1.3 (0e150ed6c4, 2023-07-21)"
   sodipodi:docname="drawing.svg"
   xmlns:inkscape="http://www.inkscape.org/namespaces/inkscape"
   xmlns:sodipodi="http://sodipodi.sourceforge.net/DTD/sodipodi-0.dtd"
   xmlns="http://www.w3.org/2000/svg"
   xmlns:svg="http://www.w3.org/2000/svg">
  <sodipodi:namedview
     id="namedview1"
     pagecolor="#ffffff"
     bordercolor="#000000"
     borderopacity="0.25"
     inkscape:showpageshadow="2"
     inkscape:pageopacity="0.0"
     inkscape:pagecheckerboard="0"
     inkscape:deskcolor="#d1d1d1"
     inkscape:document-units="px"
     inkscape:zoom="11.313709"
     inkscape:cx="38.935067"
     inkscape:cy="28.90299"
     inkscape:window-width="1864"
     inkscape:window-height="1000"
     inkscape:window-x="0"
     inkscape:window-y="0"
     inkscape:window-maximized="1"
     inkscape:current-layer="layer1" />
  <defs
     id="defs1">
    <inkscape:path-effect
       effect="fillet_chamfer"
       id="path-effect4"
       is_visible="true"
       lpeversion="1"
       nodesatellites_param="F,0,0,1,0,0.13229141,0,1 @ F,0,0,1,0,0,0,1 @ F,0,0,1,0,0,0,1 @ F,0,0,1,0,0,0,1 @ F,0,0,1,0,0,0,1 @ F,0,0,1,0,0,0,1 @ F,0,0,1,0,0,0,1 @ F,0,0,1,0,0,0,1 @ F,0,0,1,0,0,0,1 @ F,0,0,1,0,0,0,1 @ F,0,0,1,0,0,0,1 @ F,0,0,1,0,0,0,1 @ F,0,0,1,0,0,0,1 @ F,0,0,1,0,0,0,1 @ F,0,0,1,0,0,0,1 @ F,0,0,1,0,0,0,1 @ F,0,0,1,0,0,0,1 @ F,0,0,1,0,0.13229178,0,1 | F,0,0,1,0,0,0,1 @ F,0,0,1,0,0,0,1 @ F,0,0,1,0,0,0,1 @ F,0,0,1,0,0,0,1 @ F,0,0,1,0,0,0,1 @ F,0,0,1,0,0,0,1 @ F,0,0,1,0,0,0,1 @ F,0,0,1,0,0,0,1 @ F,0,0,1,0,0,0,1 @ F,0,0,1,0,0,0,1 @ F,0,0,1,0,0,0,1 @ F,0,0,1,0,0,0,1 @ F,0,0,1,0,0,0,1 @ F,0,0,1,0,0,0,1 @ F,0,0,1,0,0,0,1 @ F,0,0,1,0,0,0,1 @ F,0,0,1,0,0,0,1 @ F,0,0,1,0,0,0,1 @ F,0,0,1,0,0,0,1 @ F,0,0,1,0,0,0,1"
       radius="0"
       unit="px"
       method="auto"
       mode="F"
       chamfer_steps="1"
       flexible="false"
       use_knot_distance="true"
       apply_no_radius="true"
       apply_with_radius="true"
       only_selected="false"
       hide_knots="false" />
    <inkscape:path-effect
       effect="fillet_chamfer"
       id="path-effect3"
       is_visible="true"
       lpeversion="1"
       nodesatellites_param="F,0,0,1,0,0,0,1 @ F,0,0,1,0,0,0,1 @ F,0,0,1,0,0,0,1 @ F,0,0,1,0,0,0,1 @ F,0,0,1,0,0,0,1 @ F,0,0,1,0,0,0,1 @ F,0,0,1,0,0,0,1 @ F,0,0,1,0,0,0,1 @ F,0,0,1,0,0,0,1 @ F,0,0,1,0,0,0,1 @ F,0,0,1,0,0,0,1 @ F,0,0,1,0,0,0,1 @ F,0,0,1,0,0,0,1 @ F,0,0,1,0,0,0,1 @ F,0,0,1,0,0,0,1 @ F,0,0,1,0,0,0,1 @ F,0,0,1,0,0,0,1 @ F,0,0,1,0,0.26458262,0,1 | F,0,0,1,0,0,0,1 @ F,0,0,1,0,0,0,1 @ F,0,0,1,0,0,0,1 @ F,0,0,1,0,0,0,1 @ F,0,0,1,0,0,0,1 @ F,0,0,1,0,0,0,1 @ F,0,0,1,0,0,0,1 @ F,0,0,1,0,0,0,1 @ F,0,0,1,0,0,0,1 @ F,0,0,1,0,0,0,1 @ F,0,0,1,0,0,0,1 @ F,0,0,1,0,0,0,1 @ F,0,0,1,0,0,0,1 @ F,0,0,1,0,0,0,1 @ F,0,0,1,0,0,0,1 @ F,0,0,1,0,0,0,1 @ F,0,0,1,0,0,0,1 @ F,0,0,1,0,0,0,1 @ F,0,0,1,0,0,0,1 @ F,0,0,1,0,0,0,1"
       radius="0"
       unit="px"
       method="auto"
       mode="F"
       chamfer_steps="1"
       flexible="false"
       use_knot_distance="true"
       apply_no_radius="true"
       apply_with_radius="true"
       only_selected="false"
       hide_knots="false" />
  </defs>
  <g
     inkscape:label="Layer 1"
     inkscape:groupmode="layer"
     id="layer1">
    <path
       id="rect1"
       style="fill:#01346b;fill-opacity:1;stroke-width:0.264583"
       d="M 6.7892497,2.1172309 5.7329834,2.1885444 C 5.5867354,2.198388 5.47716,2.323933 5.4870036,2.4701809 l 0.035657,0.5281332 c 0.00325,0.048255 0.019397,0.091859 0.044442,0.129191 L 2.36368,3.3435126 C 2.2174321,3.3533562 2.1073398,3.4789012 2.1171834,3.6251492 l 0.018087,0.2640666 c 0.00984,0.1462479 0.1353886,0.2558234 0.2816365,0.2459798 L 10.33632,3.6024116 c 0.146248,-0.00984 0.256341,-0.1359054 0.246497,-0.2821534 L 10.56473,3.0567084 C 10.554888,2.9104605 10.429341,2.8003683 10.283093,2.8102119 L 7.0796712,3.0257026 c 0.019817,-0.040352 0.03012,-0.086103 0.026872,-0.1343587 L 7.0708862,2.3637275 C 7.0610426,2.2174795 6.9354976,2.1073873 6.7892497,2.1172309 Z M 2.2489583,4.2333808 c -0.073063,-1e-7 -0.1322918,0.059229 -0.1322916,0.1322917 V 5.0271308 H 1.0583333 C 0.91218652,5.0158887 0.79375,5.1451358 0.79375,5.2917141 v 0.2645834 c 0,0.1465783 0.11800477,0.2645833 0.2645833,0.2645833 h 1.0583334 v 3.96875 c -0.033726,0.4384422 0.3540142,0.7937502 0.79375,0.7937502 h 6.8791666 c 0.4397367,0 0.7937497,-0.354013 0.7937497,-0.7937502 v -3.96875 h 1.058334 c 0.146147,0.011242 0.264583,-0.118005 0.264583,-0.2645833 V 5.2917141 c 0,-0.1465783 -0.118004,-0.2645833 -0.264583,-0.2645833 H 10.583333 V 4.3656725 c 0,-0.073062 -0.05923,-0.1322913 -0.132291,-0.1322917 z m 5.4239584,0.79375 c 0.4383755,0 0.79375,0.3553744 0.79375,0.79375 0,0.4383756 -0.3553745,0.79375 -0.79375,0.79375 C 7.4533442,6.6140767 7.2438099,6.5225926 7.0941406,6.361933 L 5.5319621,7.2145942 c 0.016042,0.063349 0.0242,0.1284376 0.024288,0.1937866 -4.53e-5,0.065522 -0.0082,0.1307863 -0.024288,0.1943034 l 1.5626953,0.8516276 c 0.1496363,-0.160338 0.3589446,-0.251618 0.5782593,-0.252181 0.4383755,0 0.79375,0.355374 0.79375,0.79375 0,0.438376 -0.3553745,0.79375 -0.79375,0.79375 -0.4383756,0 -0.79375,-0.355374 -0.79375,-0.79375 5.105e-4,-0.06505 0.00901,-0.129782 0.025321,-0.192753 L 5.3417928,7.9509838 C 5.1917314,8.1112008 4.9820183,8.2021208 4.7625,8.2021308 c -0.4383756,0 -0.79375,-0.3553744 -0.79375,-0.79375 0,-0.4383756 0.3553744,-0.79375 0.79375,-0.79375 0.219776,7e-7 0.4297152,0.091124 0.5798096,0.2516642 L 6.9044881,6.0146674 c -0.016391,-0.063306 -0.024896,-0.1283947 -0.025321,-0.1937866 0,-0.4383756 0.3553744,-0.79375 0.7937496,-0.79375 z"
       sodipodi:nodetypes="cccccccccccccccccccccsssccsssccssscsccsscccccccssccccsscccs" />
  </g>
</svg>
