<?xml version="1.0" standalone="no"?>
<!DOCTYPE svg PUBLIC "-//W3C//DTD SVG 20010904//EN"
 "http://www.w3.org/TR/2001/REC-SVG-20010904/DTD/svg10.dtd">
<svg version="1.0" xmlns="http://www.w3.org/2000/svg"
 width="700.000000pt" height="700.000000pt" viewBox="0 0 700.000000 700.000000"
 preserveAspectRatio="xMidYMid meet">
<metadata>
Created by potrace 1.14, written by Peter Selinger 2001-2017
</metadata>
<g transform="translate(0.000000,700.000000) scale(0.100000,-0.100000)"
fill="#000000" stroke="none">
<path d="M3748 5835 c-2 -1 -55 -6 -118 -9 -63 -4 -128 -8 -145 -10 -16 -3
-82 -7 -145 -10 -185 -10 -221 -16 -256 -43 -38 -29 -63 -86 -59 -133 2 -19 6
-83 9 -142 3 -59 8 -122 11 -140 12 -67 11 -73 -10 -74 -58 -4 -246 -17 -285
-19 -25 -2 -85 -6 -135 -10 -49 -3 -119 -8 -155 -10 -76 -5 -209 -14 -295 -20
-33 -3 -98 -7 -145 -10 -47 -3 -114 -7 -150 -10 -36 -2 -105 -7 -155 -10 -49
-3 -115 -8 -145 -10 -30 -3 -95 -7 -145 -10 -170 -10 -209 -24 -241 -88 -23
-44 -15 -231 12 -278 35 -59 66 -74 152 -73 71 0 228 9 347 19 46 4 104 8 305
20 41 3 102 7 135 10 33 2 107 7 165 10 58 4 125 8 150 10 25 3 88 7 140 10
129 8 224 14 290 20 30 2 100 7 155 11 55 3 120 7 145 9 25 1 88 6 140 9 52 4
124 8 160 11 36 3 103 7 150 10 47 3 110 8 140 10 30 2 98 7 150 10 52 3 120
8 150 10 30 2 100 7 155 10 55 4 125 8 155 10 30 2 98 6 150 10 52 3 120 8
150 10 71 6 171 13 290 20 52 3 120 7 150 10 82 7 205 15 455 30 124 8 155 14
193 37 52 32 64 66 61 171 -4 145 -21 187 -89 222 -33 17 -87 17 -315 0 -27
-2 -93 -6 -145 -10 -52 -3 -120 -8 -150 -10 -30 -3 -93 -7 -140 -10 -47 -3
-114 -7 -150 -10 -36 -2 -108 -7 -160 -10 -110 -7 -195 -13 -300 -20 -41 -3
-104 -8 -140 -10 -127 -8 -246 -16 -286 -20 l-42 -4 1 62 c1 77 -12 293 -20
327 -8 33 -39 77 -65 91 -24 13 -75 28 -80 24z"/>
<path d="M1213 4659 c-43 -16 -46 -30 -46 -234 l-1 -195 -312 0 c-306 0 -312
0 -344 -23 -60 -40 -73 -74 -72 -197 1 -122 11 -154 64 -192 33 -23 36 -23
349 -26 l315 -3 0 -1107 c-1 -609 2 -1130 6 -1159 21 -171 179 -322 363 -350
22 -3 913 -6 1980 -6 1826 0 1944 1 2000 17 166 49 293 193 312 356 3 25 6
541 6 1147 l1 1102 317 3 c303 3 319 4 346 24 50 36 66 84 66 199 0 114 -12
149 -66 189 -27 20 -41 21 -346 24 l-317 3 0 195 c0 188 -1 196 -23 217 l-22
22 -2278 1 c-1253 0 -2287 -3 -2298 -7z m3177 -463 c163 -67 267 -213 274
-385 8 -202 -117 -377 -314 -439 -128 -41 -301 -2 -405 90 -35 30 -38 31 -63
16 -15 -9 -83 -46 -152 -84 -139 -75 -167 -90 -466 -253 l-209 -114 1 -111 1
-111 29 -15 c16 -8 58 -31 94 -51 69 -39 101 -56 300 -164 69 -38 139 -76 155
-85 17 -9 71 -38 120 -65 50 -26 104 -56 122 -67 l32 -19 38 34 c78 70 191
108 307 102 332 -16 522 -388 341 -670 -75 -117 -207 -193 -349 -199 -187 -9
-363 111 -429 292 -21 60 -31 190 -17 228 7 18 1 25 -43 49 -29 15 -119 64
-202 110 -82 45 -181 99 -220 120 -38 21 -94 51 -122 66 -29 16 -79 43 -110
60 -32 17 -81 44 -109 60 l-51 29 -24 -26 c-62 -66 -187 -113 -300 -112 -169
2 -309 91 -385 245 -31 64 -38 90 -42 154 -9 167 51 297 182 391 161 115 394
103 534 -26 l33 -31 74 40 c373 197 790 433 787 446 -31 126 15 288 110 390
121 129 315 171 478 105z"/>
</g>
</svg>
